<svg width="191" height="129" viewBox="0 0 191 129" fill="none" xmlns="http://www.w3.org/2000/svg">
<path d="M0 85.7843C22.0952 85.7843 40.0068 98.0746 40.0068 113.235V128.676C17.9116 128.676 0 116.386 0 101.225V85.7843Z" fill="#00A95F"/>
<path d="M0 42.8922C22.0952 42.8922 40.0068 55.1824 40.0068 70.3431V85.7843C17.9116 85.7843 0 73.4941 0 58.3333V42.8922Z" fill="#00A95F"/>
<path d="M0 0C22.0952 0 40.0068 12.2902 40.0068 27.451V42.8922C17.9116 42.8922 0 30.6019 0 15.4412V0Z" fill="#00A95F"/>
<path d="M87.5149 85.7843C65.4197 85.7843 47.5081 98.0746 47.5081 113.235V128.676C69.6032 128.676 87.5149 116.386 87.5149 101.225V85.7843Z" fill="#00A95F"/>
<path d="M87.5149 42.8922C65.4197 42.8922 47.5081 55.1824 47.5081 70.3431V85.7843C69.6032 85.7843 87.5149 73.4941 87.5149 58.3333V42.8922Z" fill="#00A95F"/>
<path d="M87.5149 0C65.4197 0 47.5081 12.2902 47.5081 27.451V42.8922C69.6032 42.8922 87.5149 30.6019 87.5149 15.4412V0Z" fill="#00A95F"/>
<path d="M118.73 128.676L172.932 64.3383L118.73 1.87141e-05L136.797 0L191 64.3383L136.797 128.676H118.73Z" fill="#00A95F"/>
<path d="M82.5946 128.676L136.797 64.3383L95.5 15.3186V0H100.662L154.865 64.3383L100.662 128.676H82.5946Z" fill="#00A95F"/>
</svg>
