<svg width="24" height="19" viewBox="0 0 24 19" fill="currentColor" xmlns="http://www.w3.org/2000/svg">
<path d="M3.42857 13.4118V6.14706C3.42857 3.36939 5.73111 1.11765 8.57143 1.11765C11.4118 1.11765 13.7143 3.36939 13.7143 6.14706V13.9706C13.7143 15.5137 14.9935 16.7647 16.5714 16.7647C18.1494 16.7647 19.4286 15.5137 19.4286 13.9706V6.51509C18.0969 6.05481 17.1429 4.81283 17.1429 3.35294C17.1429 1.50117 18.6778 0 20.5714 0C22.465 0 24 1.50117 24 3.35294C24 4.81283 23.0459 6.05481 21.7143 6.51509V13.9706C21.7143 16.7483 19.4118 19 16.5714 19C13.7311 19 11.4286 16.7483 11.4286 13.9706V6.14706C11.4286 4.60391 10.1494 3.35294 8.57143 3.35294C6.99347 3.35294 5.71429 4.60391 5.71429 6.14706V13.4118H9.14286L4.57143 19L0 13.4118H3.42857Z" />
</svg>
