<svg width="350" height="301" viewBox="0 0 350 301" fill="none" xmlns="http://www.w3.org/2000/svg">
<g clip-path="url(#clip0_326_31175)">
<path d="M199.387 299.402H101.386C88.6169 299.402 78.2305 289.006 78.2305 276.226V23.1756C78.2305 10.3955 88.6169 0 101.386 0H199.387C212.156 0 222.542 10.3955 222.542 23.1756V276.221C222.542 289.001 212.156 299.397 199.387 299.397V299.402Z" fill="#272747"/>
<path d="M199.487 293.145H101.29C91.7095 293.145 83.9121 285.341 83.9121 275.752V22.2227C83.9121 12.6339 91.7095 4.82971 101.29 4.82971H199.487C209.068 4.82971 216.865 12.6339 216.865 22.2227V275.752C216.865 285.341 209.068 293.145 199.487 293.145Z" fill="white"/>
<path d="M165.724 21.3253H134.474C130.873 21.3253 127.941 18.3912 127.941 14.7866C127.941 11.1819 130.873 8.2478 134.474 8.2478H165.724C169.326 8.2478 172.257 11.1819 172.257 14.7866C172.257 18.3912 169.326 21.3253 165.724 21.3253Z" fill="#272747"/>
<path d="M171.235 125.93L161.523 118.368C161.523 118.368 150.442 121.827 150.155 121.968C149.868 122.109 132.953 161.372 132.953 161.372C132.953 161.372 176.282 183.564 173.114 181.402C169.945 179.244 170.6 149.993 173.547 146.177C176.504 142.356 173.98 132.777 173.98 132.777L171.245 125.936H171.23H171.235V125.93Z" fill="#272747"/>
<path d="M144.382 143.621H157.554V164.533L143.032 159.759L144.382 143.621Z" fill="#E0CAB0"/>
<path d="M173.028 193.153C171.094 193.955 169.104 194.651 167.064 195.23C162.178 196.632 157.015 197.373 151.691 197.373C147.026 197.373 142.493 196.803 138.156 195.719C136.625 195.341 135.119 194.898 133.648 194.393C131.789 193.758 129.976 193.037 128.208 192.211L129.049 188.097L131.271 177.207L133.875 164.483L134.358 162.088L135.512 156.446L135.527 156.376H161.871L161.886 156.426L168.907 179.546L171.844 189.231L173.033 193.158L173.028 193.153Z" fill="#6A6AF4"/>
<path d="M182.009 188.45C179.183 190.28 176.176 191.858 173.028 193.153C171.094 193.955 169.104 194.651 167.064 195.23L166.107 191.253L162.526 176.375L157.705 156.381H157.71C157.71 156.381 158.174 156.371 158.96 156.371C159.695 156.371 160.707 156.381 161.881 156.421C164.697 156.522 168.419 156.809 171.331 157.566C173.577 158.145 175.34 159.008 175.844 160.273C176.342 161.528 178.423 171.147 181.113 184.144C181.405 185.546 181.697 186.978 182.004 188.45H182.009Z" fill="#6A6AF4"/>
<path d="M155.751 149.403C163.74 149.403 170.217 142.921 170.217 134.924C170.217 126.928 163.74 120.445 155.751 120.445C147.761 120.445 141.284 126.928 141.284 134.924C141.284 142.921 147.761 149.403 155.751 149.403Z" fill="#E0CAB0"/>
<path d="M173.773 132.268V132.288L170.227 132.898C170.036 132.116 169.819 131.39 169.598 130.725C169.326 129.918 169.039 129.192 168.736 128.542C167.966 126.888 167.099 125.729 166.213 124.927C162.883 121.907 159.196 123.914 158.708 123.813C158.063 123.682 149.374 133.12 148.261 143.616C148.145 144.78 148.115 145.96 148.2 147.145C148.205 147.19 148.205 147.231 148.205 147.276C148.437 150.855 147.183 153.855 145.334 156.29C145.314 156.315 145.294 156.341 145.274 156.366C144.619 157.223 143.884 158.009 143.123 158.73C140.927 160.787 138.449 162.284 136.6 163.232C135.174 163.968 134.127 164.377 133.87 164.472C133.83 164.488 133.809 164.493 133.809 164.493C133.809 164.493 131.457 168.914 131.271 177.197C131.195 180.671 131.497 184.82 132.51 189.609C132.721 190.607 132.958 191.626 133.235 192.674C133.386 193.254 133.527 193.829 133.648 194.383C131.79 193.748 129.976 193.027 128.208 192.2C126.798 191.55 125.428 190.844 124.088 190.078C122.864 189.387 121.665 188.646 120.501 187.86C121.116 186.393 121.71 185.112 122.229 184.099C122.582 183.408 122.899 182.848 123.156 182.44C126.324 177.394 124.163 168.611 124.163 168.611C119.272 164.291 125.025 154.783 125.025 154.783C125.025 154.783 124.012 142.103 127.04 139.658C130.067 137.208 130.208 131.153 130.208 131.153C135.542 107.958 152.955 112.424 152.955 112.424C174.871 110.015 173.824 131.491 173.778 132.252V132.268H173.773Z" fill="#272747"/>
<path d="M147.032 156.467L146.065 160.752L144.579 167.306L139.058 191.732L138.156 195.719C136.625 195.341 135.119 194.898 133.648 194.393C131.79 193.758 129.976 193.037 128.208 192.21C126.798 191.56 125.428 190.854 124.088 190.088C124.385 188.651 124.672 187.245 124.959 185.868C127.951 171.349 130.319 160.313 130.858 158.962C131.366 157.682 132.998 156.94 135.043 156.532C135.195 156.502 135.356 156.472 135.512 156.446C135.658 156.421 135.814 156.396 135.96 156.376C138.368 156.023 141.158 156.048 143.34 156.159C144.095 156.199 144.775 156.25 145.339 156.295C145.657 156.32 145.944 156.351 146.175 156.371C146.719 156.426 147.037 156.467 147.037 156.467H147.032Z" fill="#6A6AF4"/>
<path d="M151.691 198.381C147.027 198.381 142.388 197.817 137.91 196.697C136.368 196.319 134.822 195.861 133.316 195.346C131.412 194.696 129.548 193.95 127.78 193.128C126.38 192.483 124.969 191.757 123.584 190.965C122.34 190.265 121.111 189.503 119.932 188.707C104.045 178.039 94.5557 160.278 94.5557 141.201C94.5557 109.672 120.184 84.0159 151.691 84.0159C183.198 84.0159 208.826 109.667 208.826 141.201C208.826 160.712 199.004 178.689 182.558 189.297C179.672 191.162 176.594 192.775 173.416 194.086C171.446 194.903 169.406 195.613 167.346 196.203C162.284 197.65 157.02 198.386 151.696 198.386L151.691 198.381ZM151.691 86.0274C121.297 86.0274 96.5705 110.776 96.5705 141.196C96.5705 159.602 105.723 176.733 121.056 187.033C122.189 187.799 123.373 188.53 124.577 189.206C125.916 189.972 127.276 190.673 128.626 191.293C130.334 192.09 132.127 192.805 133.971 193.436C135.421 193.935 136.912 194.373 138.398 194.741C142.72 195.82 147.193 196.365 151.696 196.365C156.829 196.365 161.911 195.654 166.792 194.257C168.782 193.693 170.751 193.002 172.65 192.216C175.718 190.95 178.685 189.397 181.47 187.598C197.342 177.363 206.817 160.016 206.817 141.196C206.817 110.776 182.09 86.0274 151.696 86.0274H151.691Z" fill="#272747"/>
<path d="M0 300.148C0 300.622 0.538965 301 1.21393 301H348.786C349.456 301 350 300.622 350 300.148C350 299.674 349.461 299.296 348.786 299.296H1.21393C0.544002 299.296 0 299.674 0 300.148Z" fill="#272747"/>
<path d="M218.906 161.805C219.978 160.752 221.298 159.975 222.759 159.542L233.382 147.952L238.983 153.326L227.599 164.508C227.111 165.939 226.285 167.22 225.182 168.243C222.457 170.85 218.845 171.52 217.112 169.741C215.375 167.966 216.175 164.412 218.895 161.81H218.906V161.805Z" fill="#E0CAB0"/>
<path d="M223.333 156.588L228.975 163.686L258.134 141.594L258.159 141.544L275.2 109.717C277.809 104.842 276.363 98.7772 271.835 95.6112C269.064 93.6702 265.619 93.1308 262.385 94.124C259.152 95.1171 256.608 97.5017 255.399 100.663L244.343 129.626L223.333 156.577V156.588Z" fill="#CFCFCF"/>
<path d="M271.351 82.9723H259.464V101.847L272.57 97.5371L271.351 82.9723Z" fill="#E0CAB0"/>
<path d="M248.03 75.1278C248.03 82.3471 253.873 88.1952 261.086 88.1952C268.299 88.1952 274.142 82.3471 274.142 75.1278C274.142 67.9084 268.299 62.0603 261.086 62.0603C253.873 62.0603 248.03 67.9084 248.03 75.1278Z" fill="#E0CAB0"/>
<path d="M270.324 83.4814L271.598 85.9013L277.22 75.2084C280.604 64.8331 268.782 58.8741 268.782 58.8741C264.924 54.3267 257.172 59.6454 257.172 59.6454C245.99 57.16 251.39 66.5925 251.39 66.5925C251.39 66.5925 255.203 66.6782 255.203 69.7636C255.203 72.849 259.358 72.6372 259.358 72.6372L262.612 78.3391L264.41 76.1511C271.094 73.3178 270.324 83.4814 270.324 83.4814Z" fill="#272747"/>
<path d="M276.167 276.378H265.619V291.356H276.167V276.378Z" fill="#E0CAB0"/>
<path d="M255.349 300.42C259.978 300.42 266.738 299.936 266.788 299.931C268.596 300.093 277.623 300.803 278.071 298.736C278.484 296.836 277.874 294.849 277.789 294.577C276.917 285.941 276.595 285.84 276.404 285.785C276.096 285.694 275.2 286.123 273.744 287.06L273.653 287.121L273.633 287.227C273.608 287.358 272.963 290.529 269.906 290.045C267.81 289.712 267.13 289.248 266.914 289.021C267.09 288.941 267.312 288.8 267.468 288.558C267.695 288.205 267.735 287.751 267.584 287.207C267.191 285.775 266.012 283.652 265.962 283.562L265.826 283.32L253.838 291.416L246.433 293.534C245.874 293.69 245.426 294.093 245.199 294.628C244.887 295.374 245.078 296.241 245.683 296.785C247.028 297.995 249.702 300.067 252.503 300.324C253.248 300.395 254.236 300.42 255.344 300.42H255.349Z" fill="#272747"/>
<path d="M298.499 253.925L290.372 260.654L299.911 272.195L308.038 265.466L298.499 253.925Z" fill="#E0CAB0"/>
<path d="M297.781 285.714C301.347 282.76 306.248 278.077 306.283 278.041C307.779 277.018 315.189 271.805 314.217 269.924C313.325 268.195 311.593 267.051 311.351 266.9C305.18 260.794 304.873 260.925 304.687 261.006C304.39 261.132 303.971 262.03 303.448 263.683L303.417 263.784L303.468 263.88C303.538 264.001 305.059 266.859 302.395 268.432C300.566 269.511 299.75 269.587 299.438 269.551C299.524 269.375 299.604 269.123 299.569 268.836C299.519 268.422 299.262 268.044 298.798 267.721C297.579 266.869 295.323 265.982 295.227 265.947L294.97 265.846L290.89 279.73L286.533 286.087C286.206 286.566 286.115 287.161 286.281 287.721C286.518 288.497 287.218 289.042 288.029 289.077C289.832 289.153 293.212 289.042 295.534 287.454C296.149 287.03 296.925 286.42 297.781 285.714Z" fill="#272747"/>
<path d="M248.181 160.873L264.259 280.572H276.318L284.357 160.873H248.176H248.181Z" fill="#272747"/>
<path d="M279.33 226.255L303.342 257.437L293.066 265.932L251.858 226.704L248.176 160.873L255.545 167.467L279.33 226.255Z" fill="#272747"/>
<path d="M255.545 90.4588L248.176 160.873H284.357L287.163 138.02C288.89 123.904 286.014 109.606 278.962 97.2648L273.411 87.5549L255.545 90.4588Z" fill="#CFCFCF"/>
<path d="M252.301 180.882C252.84 179.476 253.722 178.22 254.87 177.222L259.731 162.259L267.06 164.825L261.343 179.723C261.499 181.225 261.272 182.733 260.693 184.129C259.298 187.628 256.285 189.74 253.973 188.843C251.661 187.945 250.916 184.381 252.311 180.882H252.301Z" fill="#E0CAB0"/>
<path d="M254.18 174.263L262.254 178.377L279.627 146.167V146.111L281.939 110.08C282.292 104.565 278.464 99.6444 273.029 98.6462C269.699 98.0362 266.339 98.9739 263.816 101.222C261.282 103.471 259.957 106.702 260.169 110.08L262.118 141.02L254.18 174.268V174.263Z" fill="#CFCFCF"/>
</g>
<defs>
<clipPath id="clip0_326_31175">
<rect width="350" height="301" fill="white"/>
</clipPath>
</defs>
</svg>
