<svg width="120" height="120" viewBox="0 0 120 120" fill="none" xmlns="http://www.w3.org/2000/svg">
  <rect width="120" height="120" fill="#F3F6FE"/>
  <path d="M72.9194 37.7995C71.6936 35.7721 70.241 33.6073 67.9661 32.9452C65.3318 32.1786 62.6255 33.7016 60.33 35.2045C53.4652 39.699 46.8542 44.5698 40.5273 49.7945L40.5343 49.8732L55.3113 48.8541C58.8701 48.6087 62.5512 48.3294 65.6962 46.6458C66.8896 46.0072 68.0529 45.1536 69.4053 45.0942C71.0854 45.0203 72.5504 46.1937 73.7017 47.4197C80.512 54.6719 82.4826 65.762 90.1231 72.1338C85.3053 60.2522 79.5527 48.7714 72.9194 37.7995Z" fill="#DAE6FD"/>
  <path d="M113.168 96.5465H112.494C106.623 88.9191 101.099 81.0413 95.9217 72.9131C92.3062 67.2421 88.8703 61.4613 85.6139 55.5708C85.4221 55.224 85.2308 54.8766 85.04 54.5287C83.6925 52.0704 82.3765 49.5956 81.0919 47.1043C79.9542 44.8986 78.8422 42.6801 77.7559 40.4488C77.4459 39.8111 77.1438 39.1716 76.8433 38.5292C76.1352 37.0208 75.4415 35.5035 74.6951 34.015C73.9423 32.511 73.0436 30.9446 71.7653 29.8145C71.6011 29.6672 71.4293 29.5285 71.2507 29.3989C71.0483 29.2505 70.8357 29.1164 70.6146 28.9977C70.5926 28.9849 70.5699 28.9737 70.5474 28.9609C70.0073 28.6728 69.4126 28.5012 68.802 28.4574C67.5313 28.3743 66.3596 28.9001 65.2568 29.4723C63.3963 30.4425 61.564 31.4686 59.76 32.5507C53.7661 36.1528 48.11 40.2893 42.8609 44.9097L42.8209 44.9448C35.9767 50.9553 33.2663 53.0677 28.0003 60.5C27.8373 60.7298 27.8389 60.7302 28.0003 60.5C28.6396 59.5937 27.3343 60.886 28.0003 60C32.9673 53.3905 36.7923 49.5951 43.0366 44.1761C43.7351 43.5687 44.4416 42.9699 45.1561 42.3796C48.6635 39.4758 52.3369 36.7785 56.1576 34.3014C57.3276 33.5422 58.511 32.8059 59.7076 32.0925C60.5003 31.6178 61.2984 31.1527 62.1019 30.6971C63.1185 30.1217 64.1399 29.5527 65.1788 29.0203C66.1969 28.496 67.2774 28.0261 68.4411 28.0086C69.2794 27.9933 70.1075 28.1948 70.845 28.5936C70.867 28.6064 70.8914 28.6176 70.9137 28.6319C71.3645 28.8842 71.7831 29.1901 72.1604 29.543C73.8499 31.1077 74.98 33.5629 75.859 35.4473C76.3017 36.3984 76.7498 37.3452 77.2032 38.2879C78.9151 41.8699 80.6935 45.4198 82.5386 48.9378C83.5248 50.8159 84.5296 52.686 85.5531 54.5481C85.7098 54.8375 85.8695 55.1267 86.0294 55.4144C89.728 62.0971 93.6589 68.6451 97.8221 75.0583C102.766 82.6727 107.676 89.4913 113.168 96.5465Z" fill="#B4C5FB"/>
  <path d="M27.8683 60.7366C39.3936 60.7366 48.7366 51.3936 48.7366 39.8683C48.7366 28.3431 39.3936 19 27.8683 19C16.3431 19 7 28.3431 7 39.8683C7 51.3936 16.3431 60.7366 27.8683 60.7366Z" fill="#B4C5FB"/>
  <path opacity="0.2" d="M12.4598 25.9297C7.9293 36.528 12.8477 48.7926 23.4461 53.3234C27.4671 55.0425 31.9264 55.455 36.1945 54.5028C40.4626 53.5506 44.3237 51.2817 47.2327 48.0166C42.7024 58.6152 30.438 63.5346 19.8397 59.0046C9.24148 54.4746 4.32175 42.2099 8.85172 31.6116C9.73919 29.5352 10.9578 27.6165 12.4599 25.9305L12.4598 25.9297Z" fill="#B4C5FB"/>
  <path d="M28.9973 98.0024L26.8657 97.4046L26.8701 97.1755L27.5087 62.4631L27.5406 60.7323L27.5417 60.6817L27.6529 54.6173L27.8148 45.8269V45.8258L27.9249 39.8672H27.9832L28.0955 46.3224L28.242 54.7241L28.3466 60.6861V60.7301L28.351 60.9756V60.9767L28.5536 72.5978L28.5745 73.7528L28.9929 97.7712L28.9973 98.0024Z" fill="#B4C5FB"/>
  <path d="M98.4771 93.7253V87.3203C98.4771 87.3203 100.973 91.8612 98.4771 93.7253Z" fill="#DAE6FD"/>
  <path d="M69.251 94.1245L64.5327 89.793C64.5327 89.793 69.5658 91.0251 69.251 94.1245Z" fill="#DAE6FD"/>
  <path d="M20.3223 95.6667V89.2617C20.3223 89.2617 22.8184 93.8026 20.3223 95.6667Z" fill="#DAE6FD"/>
  <path d="M20.4765 95.6656L15.7583 91.334C15.7583 91.334 20.7914 92.5661 20.4765 95.6656Z" fill="#DAE6FD"/>
  <path d="M37.2778 100.293V92.3281C37.2778 92.3281 40.3818 97.9747 37.2778 100.293Z" fill="#DAE6FD"/>
  <path d="M37.4693 100.291L31.6021 94.9043C31.6021 94.9043 37.8608 96.4363 37.4693 100.291Z" fill="#DAE6FD"/>
  <path d="M87.714 99.3181L87.6534 99.5306L69.1753 94.2678L55.2553 97.3363L37.4531 100.377L37.4289 100.371L28.9974 98.0046L26.8659 97.4068L20.3557 95.5791L14.9255 96.7891L13.3379 97.1425L9.88621 97.9121L9.83887 97.6975L13.3412 96.9168L14.9222 96.5645L20.3623 95.3523L20.3887 95.3589L26.8703 97.1778L28.993 97.7734L37.4642 100.152L55.2123 97.1205L69.1819 94.041L69.2094 94.0476L87.714 99.3181Z" fill="#B4C5FB"/>
</svg>