<svg width="120" height="120" viewBox="0 0 120 120" fill="none" xmlns="http://www.w3.org/2000/svg">
<rect width="120" height="120" fill="white"/>
<path d="M104 88.9856V88.9868C103.928 89.0667 103.853 89.1433 103.775 89.2153C102.476 90.4161 101.588 91.2581 99.989 91.6957C96.9793 92.5184 93.9586 93.2721 90.9269 93.9568C85.0127 95.2936 79.0669 96.3737 73.0896 97.1971C60.9575 98.876 48.7501 99.4715 36.5544 98.9795C32.493 98.8161 28.5759 98.6424 24.8544 96.3288C22.1341 94.6378 19.8484 91.9654 18.1417 88.7685C16.4111 85.5271 15.3585 81.6916 15 77.7498C15.8427 77.2751 16.738 76.9744 17.653 76.8586C20.8292 76.4679 23.955 77.9692 26.8435 79.7161C29.7329 81.4619 32.57 83.5025 35.6984 84.308C40.3087 85.4951 45.0677 83.8807 49.4876 81.8138C53.9076 79.747 58.2585 77.1945 62.9201 76.4142C69.1725 75.3664 75.4461 77.5841 81.517 79.7801C87.9836 82.1189 94.4505 84.4581 100.918 86.7976C101.842 87.1313 102.801 87.4889 103.521 88.3069C103.7 88.5095 103.86 88.7371 104 88.9856Z" fill="#69DF97"/>
<path d="M104.213 89.1912V89.1923C104.141 89.2721 104.066 89.3484 103.988 89.4202C103.173 90.1697 102.52 90.7803 101.753 91.2383C99.1155 91.572 96.4745 91.861 93.83 92.1052C87.0233 92.7328 80.2033 93.0666 73.3701 93.1065C59.5078 93.1976 44.9332 93.7558 32.7958 85.0982C28.7572 82.2174 22.9069 88.1249 18.906 84.966C17.7528 84.0525 16.6811 82.9786 15.7104 81.7638C15.4483 80.5253 15.2581 79.2634 15.1416 77.9886C14.8205 74.5451 15.0468 71.0536 15.807 67.7259C16.1748 66.134 16.6765 64.5984 17.3033 63.1465C19.162 64.0043 20.9446 65.2391 22.6411 66.5469C25.7526 68.9425 28.778 71.6629 32.243 73.0344C37.3504 75.0564 42.876 73.9446 48.0588 72.2723C53.2415 70.6 58.3897 68.3718 63.731 68.1839C70.8948 67.9321 77.79 71.3621 84.4585 74.7375C91.1482 78.1242 97.8389 81.5106 104.53 84.8965C104.677 85.4103 104.809 85.9317 104.925 86.4606C105.161 87.536 104.818 88.51 104.213 89.1912Z" fill="#E3FDEB"/>
<path d="M46.9815 49.531C45.7021 48.6502 45.8273 46.7229 47.1802 45.9653C47.2078 45.9499 47.2348 45.934 47.2612 45.9175C47.329 45.5858 47.3968 45.2542 47.4646 44.9225C47.8638 45.3459 48.6486 45.266 48.958 44.7705C47.8791 42.42 46.4603 40.2485 44.7493 38.3289C44.3763 37.9083 44.1671 37.3629 44.161 36.7955C44.155 36.2281 44.3527 35.6781 44.7166 35.2495C44.7232 35.2417 44.7297 35.2338 44.7361 35.2259C45.7023 34.8926 46.6172 34.4208 47.4534 33.8245C44.5858 29.1192 39.1178 25.381 37.8181 20C33.9081 24.2884 33.4691 25.7987 29.5591 30.0872C29.5591 30.0872 25.8567 33.4992 25.0576 35.3329C25.2539 35.5435 27.0118 36.049 27.0794 36.4632C28.42 36.573 30.7426 35.0722 30.7426 35.0722C30.7426 35.0722 25.6732 40.5919 24.1341 43.9917C23.9955 44.2979 23.8639 44.6475 23.98 44.9632C24.0727 45.2153 24.4052 45.3607 24.6194 45.2605C24.3636 45.5126 24.1581 45.813 24.0146 46.1451C24.4612 46.4364 24.9909 46.5653 25.5182 46.5111C26.0454 46.4568 26.5394 46.2226 26.9202 45.8462C26.7058 46.2553 26.4914 46.6643 26.277 47.0734L26.2774 47.0743C26.567 47.171 26.8269 47.3431 27.0315 47.5738C27.236 47.8044 27.3781 48.0856 27.4436 48.3895C27.5092 48.6934 27.496 49.0095 27.4053 49.3066C27.3147 49.6037 27.1497 49.8714 26.9266 50.0835C25.5963 51.3471 24.3808 52.6753 23.9354 53.55C23.5164 54.3728 27.8187 55.3647 28.7864 55.3241C29.7541 55.2834 30.6586 54.8491 31.5327 54.4229C31.4901 54.8299 31.5663 55.2407 31.7517 55.6036C32.2304 55.7222 32.7274 55.742 33.2137 55.6617C33.6999 55.5814 34.1655 55.4027 34.5832 55.1361C34.5446 55.9501 35.55 56.3996 36.2478 56.1691C35.8994 61.7978 36.1542 69.7018 36.4889 77.907H37.3193V56.4936C37.5403 56.6079 37.7767 56.6882 38.0207 56.7317C39.7196 57.0397 41.7698 57.227 42.8753 55.8739C44.1477 57.1842 46.4794 57.1593 47.7444 55.8536C47.6199 56.0789 47.8105 56.458 48.0924 56.5177C48.4246 56.5881 48.7478 56.3865 49.0298 56.1939C50.3066 55.3221 51.5834 54.4503 52.8602 53.5785C51.2846 52.4937 49.0464 50.9527 46.9815 49.531Z" fill="#69DF97"/>
<path d="M95.0998 59.0428C93.7777 58.1619 93.9071 56.2346 95.3051 55.477C95.3336 55.4616 95.3615 55.4457 95.3888 55.4292C95.4589 55.0976 95.529 54.7659 95.599 54.4343C96.0115 54.8576 96.8225 54.7777 97.1422 54.2822C96.0273 51.9317 94.5613 49.7603 92.7932 47.8406C92.4078 47.4201 92.1915 46.8746 92.1853 46.3072C92.1791 45.7398 92.3833 45.1899 92.7594 44.7612C92.7662 44.7534 92.7729 44.7455 92.7795 44.7376C93.7779 44.4044 94.7233 43.9325 95.5874 43.3362C92.6243 38.6309 86.974 34.8928 85.6309 29.5117C81.5906 33.8001 81.137 35.3105 77.0966 39.5989C77.0966 39.5989 73.2708 43.0109 72.4451 44.8446C72.648 45.0553 74.4644 45.5608 74.5343 45.9749C75.9196 46.0847 78.3195 44.584 78.3195 44.584C78.3195 44.584 73.0812 50.1036 71.4908 53.5034C71.3476 53.8096 71.2116 54.1592 71.3315 54.475C71.4273 54.7271 71.771 54.8724 71.9923 54.7723C71.7279 55.0243 71.5156 55.3247 71.3673 55.6568C71.8288 55.9481 72.3762 56.077 72.921 56.0228C73.4658 55.9686 73.9762 55.7343 74.3697 55.3579C74.1482 55.767 73.9267 56.176 73.7052 56.5851L73.7056 56.586C74.0048 56.6827 74.2734 56.8549 74.4847 57.0855C74.6961 57.3162 74.8429 57.5973 74.9106 57.9012C74.9784 58.2051 74.9648 58.5212 74.8711 58.8183C74.7774 59.1154 74.6069 59.3832 74.3764 59.5952C73.0018 60.8588 71.7457 62.187 71.2855 63.0617C70.8525 63.8846 75.2982 64.8764 76.2982 64.8358C77.2981 64.7951 78.2328 64.3608 79.136 63.9346C79.092 64.3417 79.1707 64.7524 79.3624 65.1153C79.857 65.234 80.3706 65.2537 80.873 65.1734C81.3754 65.0931 81.8566 64.9144 82.2882 64.6478C82.2483 65.4618 83.2872 65.9113 84.0083 65.6808C83.6483 71.3095 83.9116 79.2135 84.2575 87.4187H85.1155V66.0053C85.3439 66.1197 85.5881 66.1999 85.8403 66.2434C87.5959 66.5514 89.7144 66.7387 90.8567 65.3856C92.1715 66.6959 94.581 66.6711 95.8881 65.3653C95.7595 65.5906 95.9564 65.9697 96.2477 66.0294C96.591 66.0998 96.9249 65.8982 97.2164 65.7056C98.5357 64.8338 99.8551 63.962 101.174 63.0902C99.5463 62.0054 97.2335 60.4644 95.0998 59.0428Z" fill="#69DF97"/>
</svg>